<?xml version="1.0" encoding="utf-8"?>
<!-- Generator: Adobe Illustrator 20.1.0, SVG Export Plug-In . SVG Version: 6.00 Build 0)  -->
<svg version="1.1" id="Слой_1" xmlns="http://www.w3.org/2000/svg" xmlns:xlink="http://www.w3.org/1999/xlink" x="0px" y="0px"
	 viewBox="0 0 27 27" style="enable-background:new 0 0 27 27;" xml:space="preserve">
<style type="text/css">
	.st0{fill:#FFFFFF;stroke:#FFFFFF;stroke-miterlimit:10;}
	.st1{fill:#FFFFFF;}
</style>
<path class="st0" d="M13.4,0.4C6.5,0.4,0.9,6,0.9,12.9c0,2.9,0.9,5.5,2.5,7.6l0,0l-1.5,5.3l6-1.5l0,0c1.7,0.9,3.4,1.2,5.5,1.2
	c6.9,0,12.5-5.6,12.5-12.5S20.3,0.4,13.4,0.4z"/>
<path class="st1" d="M11.6,7.1c-0.1-0.6-0.3-0.6-0.6-0.7c-0.2,0-0.4-0.1-0.6-0.1c-0.2,0-0.5,0-0.9,0.2C9.3,6.8,8.4,7.4,8.1,9
	c-0.3,1.6,0.5,3.3,0.6,3.5s1.4,3.9,4.1,5.7c2.3,1.5,2.8,1.4,3.4,1.5c0.6,0,1.9-0.4,2.3-1.1s0.5-1.3,0.5-1.5c0-0.1-0.2-0.3-0.5-0.5
	s-1.6-1.3-1.8-1.4c-0.2-0.2-0.4-0.2-0.7,0c-0.3,0.3-1,0.9-1.2,1.1s-0.4,0.2-0.7,0s-1.1-0.7-2.1-2c-0.7-1-1.1-2.2-1.2-2.5
	c-0.1-0.3,0.1-0.5,0.3-0.6s0.4-0.3,0.5-0.5c0.2-0.2,0.3-0.3,0.4-0.5c0.1-0.2,0.1-0.4,0.1-0.6S11.8,7.8,11.6,7.1z"/>
</svg>
